<svg xmlns="http://www.w3.org/2000/svg" xmlns:xlink="http://www.w3.org/1999/xlink" width="1080" zoomAndPan="magnify" viewBox="0 0 810 809.999993" height="1080" preserveAspectRatio="xMidYMid meet" version="1.0"><defs><clipPath id="762f11718f"><path d="M 291 486 L 521 486 L 521 660.820312 L 291 660.820312 Z M 291 486 " clip-rule="nonzero"/></clipPath><clipPath id="a0a6953899"><path d="M 286.457031 484 L 523 484 L 523 660.820312 L 286.457031 660.820312 Z M 286.457031 484 " clip-rule="nonzero"/></clipPath><clipPath id="579e7a2548"><path d="M 364 149.320312 L 378 149.320312 L 378 513 L 364 513 Z M 364 149.320312 " clip-rule="nonzero"/></clipPath><clipPath id="1366969403"><path d="M 29 27 L 86 27 L 86 87 L 29 87 Z M 29 27 " clip-rule="nonzero"/></clipPath><clipPath id="d79699e787"><path d="M 84.328125 27.460938 L 86.664062 84.277344 L 29.847656 86.613281 L 27.511719 29.796875 Z M 84.328125 27.460938 " clip-rule="nonzero"/></clipPath><clipPath id="e330c0c59e"><path d="M 85.03125 44.503906 C 85.929688 66.417969 68.808594 85.011719 46.894531 85.910156 L 29.847656 86.613281 L 29.148438 69.566406 C 28.246094 47.652344 45.371094 29.0625 67.285156 28.160156 L 84.328125 27.460938 Z M 85.03125 44.503906 " clip-rule="nonzero"/></clipPath><clipPath id="af184b85ad"><path d="M 0 0.398438 L 56.960938 0.398438 L 56.960938 59.679688 L 0 59.679688 Z M 0 0.398438 " clip-rule="nonzero"/></clipPath><clipPath id="cc2be49c90"><path d="M 55.328125 0.460938 L 57.664062 57.277344 L 0.847656 59.613281 L -1.488281 2.796875 Z M 55.328125 0.460938 " clip-rule="nonzero"/></clipPath><clipPath id="250c96aa0a"><path d="M 56.03125 17.503906 C 56.929688 39.417969 39.808594 58.011719 17.894531 58.910156 L 0.847656 59.613281 L 0.148438 42.566406 C -0.753906 20.652344 16.371094 2.0625 38.285156 1.160156 L 55.328125 0.460938 Z M 56.03125 17.503906 " clip-rule="nonzero"/></clipPath><clipPath id="963708479b"><rect x="0" width="57" y="0" height="60"/></clipPath><clipPath id="5555c1a4c1"><path d="M 29 57 L 110 57 L 110 106 L 29 106 Z M 29 57 " clip-rule="nonzero"/></clipPath><clipPath id="2d2f6fe3e0"><path d="M 109.683594 76.644531 L 74.789062 121.542969 L 29.890625 86.644531 L 64.789062 41.746094 Z M 109.683594 76.644531 " clip-rule="nonzero"/></clipPath><clipPath id="bd34e14eab"><path d="M 99.214844 90.113281 C 85.753906 107.433594 60.675781 110.574219 43.359375 97.113281 L 29.890625 86.644531 L 40.359375 73.175781 C 53.820312 55.859375 78.898438 52.714844 96.214844 66.175781 L 109.683594 76.644531 Z M 99.214844 90.113281 " clip-rule="nonzero"/></clipPath><clipPath id="09ffbad054"><path d="M 0.800781 0 L 80.71875 0 L 80.71875 49 L 0.800781 49 Z M 0.800781 0 " clip-rule="nonzero"/></clipPath><clipPath id="6d90764dca"><path d="M 80.683594 19.644531 L 45.789062 64.542969 L 0.890625 29.644531 L 35.789062 -15.253906 Z M 80.683594 19.644531 " clip-rule="nonzero"/></clipPath><clipPath id="72e746f075"><path d="M 70.214844 33.113281 C 56.753906 50.433594 31.675781 53.574219 14.359375 40.113281 L 0.890625 29.644531 L 11.359375 16.175781 C 24.820312 -1.140625 49.898438 -4.285156 67.214844 9.175781 L 80.683594 19.644531 Z M 70.214844 33.113281 " clip-rule="nonzero"/></clipPath><clipPath id="e66e2c6d43"><rect x="0" width="81" y="0" height="49"/></clipPath><clipPath id="a4a4b25db0"><rect x="0" width="125" y="0" height="122"/></clipPath></defs><g clip-path="url(#762f11718f)"><path fill="#447499" d="M 520.742188 604.433594 C 520.742188 604.433594 478.195312 618.730469 455.855469 625.894531 C 434.429688 632.753906 406.160156 643.554688 406.160156 643.554688 L 358.136719 660.625 L 293.273438 588.625 L 291.582031 544.464844 L 325.550781 532.425781 C 325.550781 532.425781 350.875 524.011719 376.121094 515.886719 C 401.367188 507.777344 412.390625 502.238281 427.644531 497.855469 C 442.894531 493.476562 453.898438 486.929688 453.898438 486.929688 Z M 520.742188 604.433594 " fill-opacity="1" fill-rule="nonzero"/></g><g clip-path="url(#a0a6953899)"><path fill="#336689" d="M 521.480469 604.570312 C 520.230469 605.265625 513.792969 607.304688 513.792969 607.304688 L 455.449219 531.101562 L 448.199219 495.722656 L 435.714844 514.972656 L 381.03125 525.65625 L 355.449219 532.773438 L 355.277344 530.6875 L 298.089844 541.867188 L 366.613281 653.023438 C 367.679688 654.933594 367.296875 657.078125 365.816406 657.898438 C 364.5625 658.59375 358.125 660.636719 358.125 660.636719 L 358.019531 660.507812 C 356.898438 660.832031 355.625 660.589844 354.640625 659.453125 L 286.601562 582.207031 L 286.601562 543.652344 C 286.601562 541.082031 288.234375 538.796875 290.667969 537.964844 L 347.402344 518.585938 C 350.863281 517.40625 353.679688 514.648438 354.59375 511.101562 C 356.085938 505.273438 360.59375 500.488281 366.671875 498.820312 L 370.515625 497.765625 C 375.589844 496.375 381.019531 497.394531 385.246094 500.511719 C 388.234375 502.710938 392.101562 503.316406 395.625 502.121094 L 447.4375 484.460938 C 449.578125 483.730469 451.953125 484.425781 453.351562 486.210938 L 453.921875 486.929688 L 453.839844 487.042969 L 522.292969 599.679688 C 523.359375 601.59375 522.964844 603.75 521.480469 604.570312 Z M 521.480469 604.570312 " fill-opacity="1" fill-rule="nonzero"/></g><path fill="#2b456b" d="M 430.15625 609.984375 C 430.5625 610.609375 430.980469 611.421875 430.585938 612.058594 C 422.246094 608.417969 416.285156 600.96875 410.898438 593.644531 C 407.136719 588.523438 403.476562 583.320312 399.941406 578.046875 C 398.195312 575.4375 396.386719 572.449219 396.96875 569.367188 L 397.429688 568.230469 C 398.160156 567.582031 399.28125 567.59375 400.277344 567.6875 C 401.261719 567.789062 402.027344 568.566406 402.6875 569.320312 C 406.625 573.828125 409.902344 578.871094 413.179688 583.886719 C 418.832031 592.578125 424.496094 601.28125 430.15625 609.984375 Z M 391.753906 619.949219 C 390.492188 618.8125 388.917969 618.09375 387.585938 617.050781 C 383.835938 614.109375 382.503906 609.089844 379.699219 605.242188 C 377.570312 602.324219 374.617188 600.097656 372.347656 597.292969 C 369.855469 594.222656 368.257812 590.539062 366.140625 587.210938 C 364.019531 583.886719 361.113281 580.746094 357.292969 579.761719 C 357.023438 580.316406 356.019531 579.945312 355.75 580.503906 L 355.960938 581.800781 C 364.496094 598.929688 377.546875 613.785156 393.421875 624.457031 C 393.945312 622.835938 393.019531 621.085938 391.753906 619.949219 Z M 448.617188 566.738281 C 446.171875 563.144531 443.636719 559.460938 439.964844 557.140625 C 437.824219 555.785156 435.75 554.625 433.78125 556.015625 C 433.875 556.398438 433.121094 557.269531 433.351562 557.59375 C 442.582031 570.929688 449.648438 579.195312 459.929688 591.730469 C 462.074219 594.339844 465.152344 597.203125 468.339844 596.101562 C 468.765625 594.664062 467.886719 593.203125 467.054688 591.964844 C 460.1875 581.871094 455.496094 576.851562 448.617188 566.738281 Z M 515.761719 602.277344 L 447.144531 490.09375 L 427.65625 497.867188 C 412.390625 502.25 396.167969 510.582031 370.921875 518.691406 C 345.675781 526.804688 325.5625 532.425781 325.5625 532.425781 L 298.113281 541.878906 L 321.414062 579.679688 C 321.414062 579.679688 340.246094 569.980469 366.972656 563.203125 C 379.710938 559.96875 411.199219 547.628906 422.6875 543.097656 C 435.007812 538.242188 448.941406 533.699219 448.941406 533.699219 L 510.320312 606.125 C 512.949219 609.160156 517.730469 605.800781 515.761719 602.277344 Z M 515.761719 602.277344 " fill-opacity="1" fill-rule="nonzero"/><g clip-path="url(#579e7a2548)"><path fill="#9ca6ad" d="M 377.777344 154.28125 L 377.777344 507.277344 C 377.777344 509.917969 375.636719 512.050781 373.007812 512.050781 L 368.8125 512.050781 C 366.175781 512.050781 364.042969 509.910156 364.042969 507.277344 L 364.042969 154.28125 C 364.042969 151.546875 366.265625 149.320312 369 149.320312 L 372.820312 149.320312 C 375.566406 149.320312 377.777344 151.546875 377.777344 154.28125 Z M 377.777344 154.28125 " fill-opacity="1" fill-rule="nonzero"/></g><g transform="matrix(1, 0, 0, 1, 353, 65)"><g clip-path="url(#a4a4b25db0)"><g clip-path="url(#1366969403)"><g clip-path="url(#d79699e787)"><g clip-path="url(#e330c0c59e)"><g transform="matrix(1, 0, 0, 1, 29, 27)"><g clip-path="url(#963708479b)"><g clip-path="url(#af184b85ad)"><g clip-path="url(#cc2be49c90)"><g clip-path="url(#250c96aa0a)"><path fill="#74b300" d="M 55.328125 0.460938 L 57.664062 57.277344 L 0.847656 59.613281 L -1.488281 2.796875 Z M 55.328125 0.460938 " fill-opacity="1" fill-rule="nonzero"/></g></g></g></g></g></g></g></g><g clip-path="url(#5555c1a4c1)"><g clip-path="url(#2d2f6fe3e0)"><g clip-path="url(#bd34e14eab)"><g transform="matrix(1, 0, 0, 1, 29, 57)"><g clip-path="url(#e66e2c6d43)"><g clip-path="url(#09ffbad054)"><g clip-path="url(#6d90764dca)"><g clip-path="url(#72e746f075)"><path fill="#83ca00" d="M 80.683594 19.644531 L 45.789062 64.542969 L 0.890625 29.644531 L 35.789062 -15.253906 Z M 80.683594 19.644531 " fill-opacity="1" fill-rule="nonzero"/></g></g></g></g></g></g></g></g></g></g></svg>